<svg fill="none" xmlns="http://www.w3.org/2000/svg" viewBox="0 0 1700 1073">
  <path fill="#88A2AA" d="M0 0h1700v1073H0z"/>
  <rect x="429.415" y="266" width="840.171" height="541" rx="40" fill="#C82B2B"/>
  <mask id="a" maskUnits="userSpaceOnUse" x="498" y="323" width="704" height="367">
    <path fill="#C4C4C4" d="M498.391 323.341h703.051v366.484H498.391z"/>
  </mask>
  <g mask="url(#a)">
    <path fill="#C4C4C4" d="M498.391 323.341h703.051v366.484H498.391z"/>
    <path d="M480.108 334.144H1216.4M480.107 359.075H1216.4M480.107 383.175H1216.4M480.107 408.937H1216.4M480.107 433.037H1216.4M480.107 457.968H1216.4M480.107 482.068H1216.4M480.107 507.829H1216.4M480.107 532.76H1216.4M480.107 556.86H1216.4M480.107 581.791H1216.4M480.107 605.891H1216.4M480.107 631.653H1216.4M480.107 655.753H1216.4M480.107 680.684H1216.4" stroke="#000" stroke-opacity=".2"/>
    <path d="M514.181 310.045v396.4M539.941 310.045v396.4M565.704 310.045v396.4M592.298 310.045v396.4M618.06 310.045v396.4M643.821 310.045v396.4M669.584 310.045v396.4M695.346 310.045v396.4M721.106 310.045v396.4M746.869 310.045v396.4M773.462 310.045v396.4M799.224 310.045v396.4M824.985 310.045v396.4M850.748 310.045v396.4M876.51 310.045v396.4M902.271 310.045v396.4M928.033 310.045v396.4M954.627 310.045v396.4M980.389 310.045v396.4M1006.15 310.045v396.4M1031.91 310.045v396.4M1057.67 310.045v396.4M1083.43 310.045v396.4M1109.2 310.045v396.4M1135.79 310.045v396.4M1161.55 310.045v396.4M1187.31 310.045v396.4" stroke="#3F2323" stroke-opacity=".25"/>
  </g>
  <path d="M1126.65 382.344v72.367h-41.67V415.39h-71.24v180.707h71.24v-51.451h-44.99v-37.648h86.66v124.655H972.908V382.344h153.742z" stroke="#000" stroke-width="5"/>
  <circle cx="558.225" cy="748.828" r="33.241" fill="#7E1A1A"/>
  <circle cx="1138.28" cy="748.828" r="33.241" fill="#7E1A1A"/>
  <path d="M611.373 381.513H722.768V454.6h-35.924v-38.054h-75.471v71.577H722.768v144.361H574.845v-72.785h36.528V595.941h75.471v-70.067H574.845V381.513h36.528zM776.006 557.314l-5.038-175.801h42.828v160.039l35.271 40.01 39.889-40.01V381.513h41.569v175.801l-81.458 75.17-73.061-75.17z" stroke="#000" stroke-width="5"/>
</svg>