<svg fill="none" xmlns="http://www.w3.org/2000/svg" viewBox="0 0 1700 1073">
  <path fill="#232739" d="M0 0h1700v1073H0z"/>
  <path d="M757.411 728.552c-7.409-10.217-21.46-9.203-32.58-11.08h-1.882l6.538 12.668c6.3-1.876 15.859-4.546 19.557 2.712 6.792 14.434 8.463 30.649 14.872 45.248 6.3 13.408 7.601 28.445 12.764 42.167 7.067 6.711 19.42 8.108 27.582 2.438 5.711-3.15 8.423-9.942 8.738-16.174-1.589-12.763-7.985-24.117-12.819-35.84-6.683-16.228-12.449-32.882-16.708-49.918l-8.943 2.958c6.587 16.461 12.531 33.156 18.625 49.809 5.876 13.969 5.944 29.403 4.451 44.221-4.889-1.232-12.517.411-13.969-5.82-4.546-13.38-6.697-27.472-11.312-40.839-4.998-14.161-6.806-29.663-14.914-42.55zM837.264 722.204c.018-12.558 12.265-21.119 20.353-29.899l1.559-1.248 2.172 13.815c-6.342 2.774-15.861 7.116-14.576 15 3.02 15.305 11.349 28.545 14.785 43.719 2.813 14.21 10.743 26.324 14.687 40.016-1.834 9.708-11.231 18.946-21.389 20.118-6.618 1.431-12.933-1.853-16.927-6.306-6.33-10.604-7.833-23.34-10.851-35.318-4.185-16.575-9.385-32.859-16.062-48.431l9.18-3.718c4.404 16.685 9.481 33.118 14.409 49.62 3.501 14.349 12.69 25.942 22.803 36.039 3.312-4.165 10.616-7.995 8.085-13.62-4.248-13.027-10.909-24.997-15.093-38.058-4.342-13.911-12.131-26.709-13.135-41.729zM1092.01 719.747c-7.41-10.217-21.47-9.203-32.59-11.08h-1.88l6.54 12.668c6.3-1.876 15.86-4.547 19.56 2.712 6.79 14.434 8.46 30.649 14.87 45.248 6.3 13.408 7.6 28.445 12.76 42.167 7.07 6.711 19.42 8.108 27.59 2.438 5.71-3.15 8.42-9.942 8.73-16.174-1.59-12.763-7.98-24.117-12.82-35.84-6.68-16.228-12.44-32.882-16.7-49.918l-8.95 2.958c6.59 16.461 12.53 33.156 18.63 49.809 5.87 13.969 5.94 29.403 4.45 44.221-4.89-1.232-12.52.411-13.97-5.82-4.55-13.38-6.7-27.472-11.31-40.839-5-14.161-6.81-29.663-14.91-42.55z" fill="#fff"/>
  <path d="M1056.07 717.358c5.92-11.468 20.8-13.161 32.11-17.135l1.96-.361-4.56 13.713c-6.93-.639-17.41-1.436-19.98 6.411-4.51 15.5-3.34 31.77-7.42 47.358-4.18 14.394-2.84 29.435-5.77 43.922-6.19 7.954-18.87 11.693-28.43 7.678-6.54-2.005-10.6-8.168-12.05-14.237-.64-12.86 4.01-25.252 6.96-37.709 4.08-17.243 7.11-34.728 8.51-52.302l9.89 1.198c-3.93 17.453-7.15 35.013-10.53 52.561-3.64 14.866-.93 30.061 3.3 44.352 4.89-2.149 13.17-1.992 13.57-8.4 2.35-14.032 2.06-28.306 4.49-42.338 2.68-14.886 1.79-30.482 7.95-44.711z" fill="#fff"/>
  <path d="M713.401 549.718c-.698 2.52-25.689 189.224-16.883 198.572 8.805 4.403 28.513-5.965 35.47-9.348 6.793-3.136 14.803-.52 21.746-3.245 6.3-1.877 16.848 1.595 19.257 0l29.171-.614c59.025-8.272 233.338-13.208 286.168-13.208 31.44 0 50.85-15.842 56.25-29.126 17.53-36.141 15.75-78.158 8.59-116.668-1.62-11.942-9.29-22.337-9.49-34.526-.32-4.93 3.16-8.86 4.97-13.174 2.59-5.04 2.82-10.778 3.94-16.229 11.81-32.882 20.15-66.969 27.45-101.069 1.97-5.917 4.56-11.778 3.41-18.187.67.835 1.35 1.684 2.05 2.519.38-11.818 8.29-21.706 9.19-33.484 4.55-27.157 10.57-54.219 21.31-79.664-1.62-1.342-3.23-2.671-4.82-4.013-3.92 3.985-6.97 8.806-8.05 14.407-2.92 12.381-11.81 21.912-17.36 33.06-8.51 16.393-13.44 34.375-21.7 50.864-11.16 18.789-18.98 39.236-29.27 58.478-5.12 9.997-6.79 21.254-10.63 31.731-5.99 17.05-7.65 35.21-13.2 52.37-1.03 3.329-1.22 6.826-1.4 10.29l-.02.337c-41.32-11.38-84.36-6.245-126.545-5.478-43.646-.328-214.153 12.655-257.319 17.722-4.739 1.095-9.272 3.889-12.285 7.683z" fill="#fff"/>
  <path d="M777.948 732.629c-8.043 0-15.706-2.082-26.826-3.958l-45.81 7.025c0-1.3 24.431-186.567 24.678-187.375 17.543-2.041 23.822-11.352 169.034-11.352 22.012-4.403 40.499-3.211 39.622-4.403 24.898-2.15 18.89-2.432 43.925-2.227 42.949-.657 87.279-5.766 128.969 7.546 2.17.246 6.01 1.342 6.2-1.863 4.21-20.707 6.14-41.961 11.96-62.34 5.64-14.585 8.47-30.266 15.87-44.139 6.93-14.106 12.97-28.663 20.93-42.249 12.98-21.761 17.48-47.631 31.6-68.777-7.73 21.269-7.91 44.345-15.84 65.531-12.48 40.004-20.13 81.335-33.39 121.119-3.04 9.094-3.53 19.475-10.35 26.843-2.26 3.793-8.14 8.354-4.73 13.257 18.01 28.581 18.93 64.38 16.85 97.029-.88 22.515-6.89 46.084-22.87 62.778-6.33 5.793-27.04 14.592-39.45 10.189-66.03 0-165.274 2.558-206.907 6.612-19.638 3.191-32.389-.312-52 3.03-8.231 1.588-17.763-1.069-25.09 3.766.055 2.574-8.975 1.561-8.003 3.958h-18.372z" fill="#232739"/>
  <path d="M756.857 377.745c-42.39-4.02-83.257-7.939-125.648-11.96.773-2.343-.761-4.785-2.088-6.865-9.954-15.601-2.822-35.86 2.383-53.619 5.204-17.759 5.999-41.232-10.178-50.218-19.189-10.658-43.496-11.535-63.402-2.285-19.907 9.25-34.912 28.393-39.14 49.932-.378 1.928-.385 4.452 1.41 5.249.086.038.17.065.252.082.446-.859.726-1.768.713-2.76 1.78-.576.924 3.097-.713 2.76-.879 1.695-2.403 3.194-3.59 4.752-1.788 2.348-2.569 6.371.035 7.759.092.049.181.088.268.118l.828-3.747c2.504-1.355 1.58 4.578-.828 3.747l-2.349 10.634 5.05-6.14c-9.545 66.129-18.402 132.779-15.549 199.532 2.853 66.752 18.026 134.206 53.402 190.886a295.24 295.24 0 0048.937 59.427c15.596 14.557 33.886 27.881 55.067 30.421 23.976 2.875 47.852-8.858 65.205-25.651 17.353-16.794 29.302-38.259 40.987-59.392 28.401-51.363 56.899-103.09 75.79-158.659 41.756-67.906 68.355-145.074 77.31-224.286 1.42-12.556 2.379-25.458-.874-37.668-3.252-12.21-11.464-23.765-23.414-27.87-16.333-5.61-34.53 4.261-45.003 17.991-10.474 13.73-15.421 30.741-22.279 46.59-6.858 15.849-16.843 31.757-32.756 38.465-12.396 5.224-26.433 4.045-39.826 2.775z" fill="#232739"/>
  <path d="M595.112 535.142c-5.234 5.443-15.676 4.069-19.324-2.544-1.183-2.144-1.689-4.593-2.708-6.82-1.365-2.983-3.691-5.737-3.662-9.018.04-4.611 4.786-8.5 3.934-13.032-1.532-8.151 1.336-16.996 7.36-22.698a98.006 98.006 0 00-6.281 21.472c.714 1.443 2.733-.34 3.212-1.877a94.741 94.741 0 019.632-21.242c2.201-3.597 4.84-7.213 8.705-8.9.83 1.939 3.277 2.625 5.381 2.481 2.104-.144 4.167-.866 6.272-.728 4.365.285 7.769 4.352 8.594 8.648.825 4.295-.391 8.715-1.952 12.802-1.561 4.086-3.492 8.089-4.18 12.409-.599 3.755-1.234 8.82-5.01 9.268.078 3.741-.245 8.227-3.507 10.061-2.659 1.495-5.969.422-8.815-.676l1.113 6.888c-5.596.331-11.781.481-16.111-3.079-1.152 3.389 3.169 6.194 6.747 6.215 3.579.022 7.386-1.205 10.6.37zm7.466-49.221a23206.78 23206.78 0 01-6.775 12.227c-2.193 3.96-4.406 7.964-5.63 12.322-.32 1.137-.001 2.935 1.154 2.689l9.201-15.753c.76-1.301 1.524-2.611 2.017-4.035a11.65 11.65 0 00.033-7.45zm-29.992 34.991c.199.803 1.051 1.387 1.871 1.283.174-.595.092-1.321-.393-1.705-.486-.384-1.387-.143-1.445.474l-.033-.052zm26.795 2.178c.342.603 1.474.336 1.51-.356l-1.24-.833c-.501.146-.704.878-.351 1.262l.081-.073zm-10.464-38.344c.693-.301.849-1.391.27-1.875-.932.148-1.127 1.722-.259 2.092l-.011-.217zM746.088 543.631l12.14-30.159c1.579-3.923 3.189-7.901 5.766-11.254 2.536-3.3 5.975-5.9 9.842-7.44 3.73-1.485 8.05-1.954 11.727-.339 1.741.765 3.465 2.738 2.487 4.371 2.749 5.758 1.844 12.627-.285 18.641-2.128 6.015-5.393 11.587-7.396 17.644-.571 1.728-1.357 3.793-3.148 4.116 1.78 1.093.55 3.826-.811 5.411l-13.474 15.693c-.866 1.008-1.981 2.115-3.294 1.912-1.314-.204-1.581-2.677-.253-2.6-2.126-.886-4.422-1.79-6.672-1.294-2.249.495-4.161 3.067-3.097 5.109 1.879-2.272 5.445-2.928 8.01-1.473-2.57 3.406-8.225 3.553-11.328.624-2.451-2.314-3.307-5.934-3.027-9.292.281-3.359 1.554-6.543 2.813-9.67zm37.784-43.773c-.091-.243-.196-.501-.412-.644-.432-.287-.997.036-1.407.354a79.488 79.488 0 00-4.151 3.448c.966-.361 2.656-.003 2.191.917-.594 1.176.727 2.656 2.036 2.51 1.31-.145 2.26-1.434 2.441-2.738.18-1.305-.236-2.613-.698-3.847zm-21.56 19.038a13.47 13.47 0 00-2.667 5.922c2.607-.258 4.202-3.799 2.667-5.922zm-8.87 28.371c.441.417 1.225.157 1.553-.353.327-.51.329-1.156.32-1.762l-.064-4.431a8.92 8.92 0 00-2.119 5.411c-.015.405.017.857.31 1.135zm18.093-16.547c-1.093-.447-2.466-.062-3.168.887-.702.949-.668 2.374.079 3.289a13.235 13.235 0 003.422-3.622l-.333-.554zm-1.041-28.314c-1.663-.852-3.879-.433-5.116.967 1.84.423 3.734.61 5.621.555.581-.314.083-1.221-.505-1.522zm-3.351 34.817c-.813-.358-1.233.984-1.105 1.863l3.964 2.138a9.569 9.569 0 00-3.038-3.783l.179-.218zm17.547-19.942c.561-.54.369-1.634-.342-1.95-1.258.216-1.753 2.151-.752 2.944l1.115-.99-.021-.004zm-11.636 11.147c.682-.497.51-1.755-.28-2.051a3.58 3.58 0 00-.951 2.933l1.34-.713-.109-.169zm.704-5.827c.629-.528.82-1.512.434-2.237-.594.283-1.248.633-1.438 1.264-.191.63.542 1.434 1.073 1.046l-.069-.073zm11.775-10.528c.602-.158.94-.941.643-1.487-.469.075-.998.189-1.243.596-.246.407.172 1.097.591.873l.009.018z" fill="#fff"/>
  <path d="M628.799 281.001c2.147-12.762-10.677-23.258-23.126-26.794-18.081-5.136-38.372-1.841-53.899 8.752-15.527 10.593-25.996 28.285-27.809 46.993L512.5 428.264c-4.191 43.253-8.375 86.987-2.374 130.027 3.883 27.849 11.97 54.915 20.029 81.854l13.328 44.551a1243.793 1243.793 0 0063.009 79.765c1.68-20.853 17.632-39.419 37.613-45.619 19.981-6.199 42.845-.453 58.564 13.353 11.508 10.108 19.375 24.277 21.87 39.389 41.202-52.039 73.365-111.214 94.622-174.093 6.83-20.204 20.384-37.296 31.359-55.584 18.85-31.41 30.209-66.64 41.383-101.527 9.08-28.35 18.191-56.929 21.58-86.505a229.051 229.051 0 00-1.369-62.064c-5.407-9.374-16.012-15.513-26.833-15.535-10.822-.021-21.451 6.076-26.895 15.428l-26.129 44.884c-.981 16.252-10.708 31.714-24.934 39.633-16.856 9.383-37.399 7.99-56.619 6.333l-79.613-6.865c-14.277-1.231-29.114-2.637-41.405-10.005l127.171 12.061c13.393 1.27 27.43 2.449 39.826-2.775 15.913-6.708 25.898-22.616 32.756-38.465 6.858-15.849 11.805-32.86 22.279-46.59 10.473-13.73 28.67-23.601 45.003-17.991 11.95 4.105 20.162 15.66 23.414 27.87 3.253 12.21 2.294 25.112.874 37.668-8.955 79.212-35.554 156.38-77.31 224.286-18.891 55.569-47.389 107.296-75.79 158.659-11.685 21.133-23.634 42.598-40.987 59.392-17.353 16.793-41.229 28.526-65.205 25.651-21.181-2.54-39.471-15.864-55.067-30.421a295.24 295.24 0 01-48.937-59.427c-35.376-56.68-50.549-124.134-53.402-190.886-2.853-66.753 6.004-133.403 15.549-199.532l-5.05 6.14 3.177-14.381c2.595-1.404 1.508 5.018-1.096 3.629-2.604-1.388-1.823-5.411-.035-7.759 1.788-2.348 4.341-4.562 4.303-7.512 1.869-.604.831 3.475-.965 2.678-1.795-.797-1.788-3.321-1.41-5.249 4.228-21.539 19.233-40.682 39.14-49.932 19.906-9.25 44.213-8.373 63.402 2.285 16.177 8.986 15.382 32.459 10.178 50.218-5.205 17.759-12.337 38.018-2.383 53.619 1.327 2.08 3.008 4.435 2.234 6.778-6.031-.32-10.787-5.778-12.307-11.623-1.52-5.845-.525-12.014.477-17.97l9.274-55.104zm38.602 468.477l9.385-6.606c.944-.665 1.903-1.344 2.605-2.259 1.766-2.302 1.369-5.969-.848-7.84-1.115-.941.123-2.68 1.296-3.549 2.167-1.606 5.152-3.245 7.348-1.678 1.485 1.06 1.97 3.287 3.658 3.981 1.129-1.742.117-4.218-1.597-5.389-1.714-1.171-3.885-1.381-5.953-1.562-4.666-.408-9.329-.842-13.99-1.304-1.628-.161-3.693-.743-3.821-2.374-1.874.482-3.462 1.695-4.992 2.88-1.223.947-2.537 2.703-1.459 3.812 1.846-2.814 6.73-2.72 8.467.164.703 1.166 2.288 1.309 3.612 1.627 1.324.317 2.815 1.453 2.349 2.732-.523 1.437-2.638 1.084-4.034.46a6.877 6.877 0 001.971 5.114c.784-1.027 1.652-2.045 2.808-2.623 1.156-.579 2.67-.618 3.651.224.98.842 1.039 2.658-.07 3.323a28.506 28.506 0 00-10.386 10.867zm32.046-7.45c-.57-.988-2.091-.221-2.816.658a19.795 19.795 0 00-3.967 7.983 6.146 6.146 0 01-2.762 3.792c.702.785 2.019.707 2.89.115s1.403-1.555 1.903-2.482l4.467-8.285c.299-.554.6-1.236.285-1.781zm-9.675 41.774c-2.767-.051-4.227 3.188-4.968 5.854-.153.552-.25 1.27.231 1.583l13.844-11.654c-1.58-.784-3.423.351-4.698 1.569-1.276 1.218-2.646 2.68-4.409 2.648zm-61.243-52.577l-7.391 12.467c-.422.711-.421 2.08.386 1.894a259.519 259.519 0 0011.522-17.581c-1.934-.456-3.504 1.51-4.517 3.22zm81.093 32.609c-1.18 1.359-3.982.925-4.479 2.656 3.173 1.811 7.848-.617 8.192-4.254.095-1.011 1.302-1.421 2.224-1.847.921-.426 1.768-1.708.971-2.336-.321-.253-.772-.243-1.177-.185-2.133.306-4.14 1.746-4.848 3.782-.26.747-.364 1.586-.883 2.184zm-73.119-38.363c-.717.44-1.436.982-1.73 1.77-.294.788.041 1.857.856 2.065 1.473.375 2.059-1.933 3.36-2.719.785-.473 1.904-.28 2.485.428s.552 1.843-.065 2.52c2.02-.958 3.358-3.196 3.246-5.429-.022-.451-.241-1.024-.692-.996a16.29 16.29 0 00-7.46 2.361zm55.23 71.142a43.213 43.213 0 0011.731-4.945c.844-.515 1.769-1.233 1.744-2.221-5.307-.071-10.566 2.727-13.475 7.166zm134.396-204.886c-.186.673-.371 1.397-.141 2.057.23.659 1.064 1.148 1.649.765a23.683 23.683 0 014.724-12.242c-.893-.753-2.339-.405-3.152.434-.813.838-1.153 2.015-1.464 3.141l-1.616 5.845zM683.172 747.159c.832-.324.851-1.683.105-2.174-.747-.491-1.842-.134-2.337.61-.495.744-.474 1.739-.162 2.576.918 2.473-4.31 3.615-3.99 6.234 2.796.111 5.447-2.307 5.593-5.101.043-.81.035-1.85.791-2.145zm-15.299 47.195c1.209.206 2.363.659 3.567.888 1.204.229 2.531.208 3.556-.463 1.026-.672 1.578-2.15.922-3.186-.655-1.036-2.594-.926-2.879.266-.242 1.012-1.328 1.744-2.357 1.587-.79-.12-1.497-.686-2.295-.639-.798.047-1.302 1.413-.514 1.547zm28.32-8.413l-9.526 7.089c-.769.571-1.551 1.157-2.097 1.944 4.976-1.028 9.398-4.464 11.623-9.033zm15.768-15.954c3.34.321 6.553-2.89 6.235-6.23-.053-.56-.205-1.14-.598-1.541l-5.637 7.771zm-66.673 17.936c-.408-.241-.846-.49-1.32-.476a1.287 1.287 0 00-.983.515 18.316 18.316 0 007.519 6.203c-.011-2.844-2.767-4.796-5.216-6.242zm52.385-55.538c-.222 1.63-.374 3.497.736 4.71 1.111 1.213 3.816.467 3.444-1.135-.277-1.192-2.023-2.172-1.338-3.187l-2.842-.388zm3.59 24.742l-2.48 3.17c-.544.695-.839 2.063.04 2.146a9.32 9.32 0 004.351-3.863c.461-.797.618-2.108-.263-2.377-.642-.196-1.233.394-1.648.924zm-131.356-34.731c-.079-1.741-.821-4.082-2.549-3.849-.157 3.365 2.106 6.701 5.291 7.8.138-1.632-1.059-3.272-2.655-3.638l-.087-.313zm135.072 32.314c1.315-.243 1.803-1.884 1.769-3.22-.034-1.337-.281-2.817.511-3.893.423-.575 1.083-.928 1.751-1.177-.55-1.103-2.262-.26-2.919.782a9.535 9.535 0 00-1.112 7.508zm-16.403-17.672c.532-.12 1.068-.241 1.571-.452.26-.109.51-.241.747-.395-2.229-2.008-6.404-.88-7.32 1.977l5.002-1.13zm-32.445 53.844c-.201-1.417-1.791-2.465-3.173-2.091 1.431 2.59 3.363 5.508 6.319 5.645a7.146 7.146 0 00-2.997-3.443l-.149-.111zm10.581-8.297c-.456.2-.903.473-1.169.894-.56.886-.14 2.041.289 2.997l5.213-4.057a5.996 5.996 0 00-4.333.166zm-11.025 2.043c1.175 1.35 3.493 1.477 4.809.262a3.387 3.387 0 001.071-2.265 9.105 9.105 0 00-5.88 2.003zm-16.835-51.32c.836-.671 1.724-1.422 1.961-2.467.238-1.045-.613-2.358-1.659-2.125a28.845 28.845 0 00-2.083 6.679l1.844-1.941-.063-.146zm4.727 42.793c.392-.229.787-.574.798-1.028.011-.451-.449-.851-.894-.779-.38 1.011-1.845.798-2.882.497-1.036-.302-2.619-.103-2.58.976 1.568 1.188 3.859 1.326 5.558.334zm-44.47-12.65a31.894 31.894 0 00-5.984-5.949c.606 2.916 3.064 5.36 5.984 5.949zm64.322 34.838c-1.497-1.163-3.857-1.009-5.192.337 1.368 1.498 4.092 1.399 5.348-.194l-.156-.143zm-13.772-1.616c1.485 1.402 3.714 1.967 5.687 1.44-.982-1.994-3.875-2.726-5.687-1.44zm-31.079-13.812c-.037.645 1.149.565 1.301-.063.151-.628-.323-1.219-.764-1.691l-3.423-3.674c-.976.645-.226 2.202.731 2.875.956.674 2.222 1.385 2.155 2.553zm123.55-27.02a14.513 14.513 0 00-4.984 6.569 10.816 10.816 0 004.984-6.569zm-18.246 17.368c.559-.083.295-1.17-.24-.987-1.852-.282-3.784 1.211-3.977 3.074a6.085 6.085 0 004.13-2.119l.087.032zm-70.979-12.791a16.92 16.92 0 012.978-2.819c-.406-.747-1.512-.84-2.249-.417-.737.424-1.191 1.197-1.612 1.936-.274.48-.555 1.056-.329 1.562.225.505 1.209.466 1.16-.085l.052-.177zm2.772-37.861c.427-.273.738-.723.84-1.22-1.559-1.111-4.132.552-3.759 2.43 1.055.405 2.385-.202 2.771-1.264l.148.054zm-23.544 40.636c1.525.093 2.775-1.789 2.1-3.159-.429.591-1.197.799-1.886 1.043-.689.244-1.432.656-1.583 1.371-.151.714.842 1.476 1.314.918l.055-.173zm81.234 19.218l-2.224 3.279a11.877 11.877 0 004.905-3.659c-.688-.727-2.111-.448-2.473.485l-.208-.105zM832.7 580.405c1.539.494 3.328.104 4.521-.986-1.39-1.35-4.077-.841-4.877.924l.356.062zM697.883 767.062a4.322 4.322 0 00-1.703 2.788 9.945 9.945 0 004.363-3.767c-.892-.555-2.246-.071-2.585.925l-.075.054zM588.98 751.166l-2.345-2.789c-.736-.122-.561 1.136-.057 1.686l3.391 3.702c.182-.928-.379-1.947-1.261-2.288l.272-.311zm22.421 14.278c1.11-1.177.755-3.381-.669-4.15-.652 1.132-.577 2.642.185 3.702l.484.448zm22.869-31.983c.356-.088.098-.717-.266-.678-.365.038-.587.408-.751.736l-2.081 4.154c1.609-.636 2.77-2.273 2.839-4.002l.259-.21zm39.96 52.392c1.054.994 3.015.712 3.746-.539-1.094-.759-2.748-.554-3.624.451l-.122.088zm-43.882-16.902c.264 1.018 1.501 1.658 2.485 1.286a3.98 3.98 0 00-2.306-2.613l-.39 1.33.211-.003zm30.084-20.012c.848-.147 1.213-1.421.572-1.996-.821.283-1.77.709-1.914 1.565-.145.855 1.436 1.417 1.517.554l-.175-.123zm-6.569 32.921c.411 1.008 2.131 1.03 2.568.034a17.399 17.399 0 00-2.82-1.294c-.346.346-.223 1.028.222 1.231l.03.029zm51.472 1.135c-.653-.181-1.354.572-1.125 1.211a3.046 3.046 0 002.604-1.571c-.347-.411-1.099-.357-1.384.101l-.095.259zm208.371-424.55c-.79.47-.729 1.853.099 2.252 1.048-.277.979-2.151-.087-2.349l-.012.097zm-89.619 246.67c.022.531.318 1.044.766 1.331.439-.97.501-2.104.172-3.116-.751-.165-.962.997-.799 1.748l-.139.037zM645.181 765.944c-.857.19-1.43 1.201-1.151 2.034.393.369 1.103.086 1.321-.407.218-.494.082-1.069-.118-1.57l-.052-.057zm-28.916-6.132c.805-.262.011-1.789-.666-1.281a2.086 2.086 0 00-.378 1.722c.267.459 1.151.072.995-.435l.049-.006zm280.8-323.175l-.806-.651c-.859.226-1.012 1.647-.222 2.051.433-.269.744-.725.839-1.225l.189-.175zm-216.48 332.412c.491-.297.347-1.199-.212-1.329l-1.355 1.181c.2.614 1.236.673 1.505.085l.062.063zM544.918 692.24c.828-.191.938-1.596.151-1.915-.823.216-.891 1.627-.094 1.922l-.057-.007zm244.217-16.65c.605-.365.796-1.271.39-1.849-.906-.036-1.139 1.427-.466 2.033l.076-.184zm-44.584 74.046c.689.122 1.422-.829.871-1.259-.689-.118-1.418.839-.862 1.263l-.009-.004zm46.905-81.358c-.609.319-.35 1.457.337 1.48.598-.371.32-1.502-.383-1.553l.046.073z" fill="#fff"/>
</svg>