<svg width="1700" height="1073" fill="none" xmlns="http://www.w3.org/2000/svg"><path fill="#FF3" d="M0 0h1700v1073H0z"/><path d="M850.5 359.927l230.8 597H619.704l230.796-597z" fill="#7BC74C"/><path d="M850 585.927c22.8 2 56.833-6.5 71-11l-25-61h-87l-12.5 5.5-161 423H747l62-361.5c4.167.833 18.2 3 41 5z" fill="#66A93D"/><path fill-rule="evenodd" clip-rule="evenodd" d="M850.499 359.927l230.791 597H619.703l230.796-597zm-114.638 352l114.638-296.535 114.638 296.535H735.861zm-7.732 20l-79.251 205h403.242l-79.251-205h-244.74z" fill="#000"/><circle cx="851" cy="383.927" r="149" fill="#68B4E3"/><path d="M907.5 485.427c-133.2-8.8-168.167-108.667-169-157.5h-12l-14 26.5 4 62 18.5 46.5c9 11.666 36.3 39.3 73.5 56.5 37.2 17.2 105.167-9.167 134.5-24.5-4.667-2-18.3-6.7-35.5-9.5z" fill="#5295BE"/><circle cx="851" cy="383.927" r="139" stroke="#000" stroke-width="20"/><path d="M639 145.733c-65.632 58.166-107 143.099-107 237.694 0 94.594 41.368 179.527 107 237.693v-27.465c-53.757-53.826-87-128.145-87-210.228 0-82.084 33.243-156.403 87-210.229v-27.465zM1066 587.472c50.22-53.266 81-125.061 81-204.045 0-78.985-30.78-150.78-81-204.046v-28.193c62.14 57.957 101 140.56 101 232.239 0 91.678-38.86 174.281-101 232.238v-28.193zM498 89.012c-66.786 79.651-107 182.337-107 294.415 0 112.077 40.214 214.763 107 294.414v-32.206c-54.644-73.134-87-163.893-87-262.208 0-98.316 32.356-189.075 87-262.209V89.012zM1195 653.48c58.27-74.441 93-168.191 93-270.053 0-101.863-34.73-195.613-93-270.054V82c70.37 80.593 113 186.031 113 301.427 0 115.395-42.63 220.833-113 301.426V653.48z" fill="#000"/></svg>