<svg fill="none" xmlns="http://www.w3.org/2000/svg" viewBox="0 0 1700 1073">
  <path fill="#C7E8CA" d="M0 0h1700v1073H0z"/>
  <path d="M596 355c0-5.523 4.477-10 10-10h489c5.52 0 10 4.477 10 10v349H596V355z" fill="#F2F2F2"/>
  <path d="M596 713h509v6c0 5.523-4.48 10-10 10H606c-5.523 0-10-4.477-10-10v-6z" fill="#0073AA"/>
  <path d="M804.184 413.504l4.453-8.566h2.554l-5.882 10.699V422h-2.25v-6.363l-5.883-10.699h2.578l4.43 8.566zm7.523 2.039c0-1.242.242-2.359.727-3.352.492-.992 1.171-1.757 2.039-2.296.875-.54 1.871-.809 2.988-.809 1.727 0 3.121.598 4.184 1.793 1.07 1.195 1.605 2.785 1.605 4.769v.153c0 1.234-.238 2.344-.715 3.328-.469.976-1.144 1.738-2.027 2.285-.875.547-1.883.82-3.024.82-1.718 0-3.113-.597-4.183-1.793-1.063-1.195-1.594-2.777-1.594-4.746v-.152zm2.18.258c0 1.406.324 2.535.972 3.387.657.851 1.532 1.277 2.625 1.277 1.102 0 1.977-.43 2.625-1.289.649-.867.973-2.078.973-3.633 0-1.391-.332-2.516-.996-3.375-.656-.867-1.531-1.301-2.625-1.301-1.07 0-1.934.426-2.59 1.278-.656.851-.984 2.07-.984 3.656zm19.91 4.945c-.844.992-2.082 1.488-3.715 1.488-1.352 0-2.383-.39-3.094-1.172-.703-.789-1.058-1.953-1.066-3.492v-8.25h2.168v8.192c0 1.922.781 2.883 2.344 2.883 1.656 0 2.757-.618 3.304-1.852v-9.223h2.168V422h-2.062l-.047-1.254zm11.543-9.48a6.467 6.467 0 00-1.067-.082c-1.421 0-2.386.605-2.894 1.816v9h-2.168v-12.68h2.109l.035 1.465c.711-1.133 1.719-1.699 3.024-1.699.422 0 .742.055.961.164v2.016zM855.652 422h-2.168v-18h2.168v18zm2.907-6.457c0-1.242.242-2.359.726-3.352.492-.992 1.172-1.757 2.039-2.296.875-.54 1.871-.809 2.988-.809 1.727 0 3.122.598 4.184 1.793 1.07 1.195 1.606 2.785 1.606 4.769v.153c0 1.234-.239 2.344-.715 3.328-.469.976-1.145 1.738-2.028 2.285-.875.547-1.882.82-3.023.82-1.719 0-3.113-.597-4.184-1.793-1.062-1.195-1.593-2.777-1.593-4.746v-.152zm2.179.258c0 1.406.324 2.535.973 3.387.656.851 1.531 1.277 2.625 1.277 1.102 0 1.976-.43 2.625-1.289.648-.867.973-2.078.973-3.633 0-1.391-.332-2.516-.996-3.375-.657-.867-1.532-1.301-2.626-1.301-1.07 0-1.933.426-2.589 1.278-.657.851-.985 2.07-.985 3.656zm11.567-.246c0-1.977.457-3.547 1.371-4.711.914-1.172 2.125-1.758 3.633-1.758 1.546 0 2.753.547 3.621 1.641l.105-1.407h1.981v12.375c0 1.641-.489 2.934-1.465 3.879-.969.946-2.274 1.418-3.914 1.418a6.518 6.518 0 01-2.684-.586c-.875-.39-1.543-.926-2.004-1.605l1.125-1.301c.93 1.148 2.067 1.723 3.41 1.723 1.055 0 1.875-.297 2.461-.891.594-.594.891-1.43.891-2.508v-1.09c-.867 1-2.051 1.5-3.551 1.5-1.484 0-2.687-.597-3.609-1.793-.914-1.195-1.371-2.824-1.371-4.886zm2.179.246c0 1.429.293 2.554.879 3.375.586.812 1.407 1.219 2.461 1.219 1.367 0 2.371-.622 3.012-1.864v-5.789c-.664-1.211-1.66-1.816-2.988-1.816-1.055 0-1.879.41-2.473 1.23-.594.821-.891 2.035-.891 3.645zm11.239-.258c0-1.242.242-2.359.726-3.352.492-.992 1.172-1.757 2.039-2.296.875-.54 1.871-.809 2.989-.809 1.726 0 3.121.598 4.183 1.793 1.07 1.195 1.606 2.785 1.606 4.769v.153c0 1.234-.239 2.344-.715 3.328-.469.976-1.145 1.738-2.028 2.285-.875.547-1.882.82-3.023.82-1.719 0-3.113-.597-4.184-1.793-1.062-1.195-1.593-2.777-1.593-4.746v-.152zm2.179.258c0 1.406.325 2.535.973 3.387.656.851 1.531 1.277 2.625 1.277 1.102 0 1.977-.43 2.625-1.289.648-.867.973-2.078.973-3.633 0-1.391-.332-2.516-.996-3.375-.657-.867-1.532-1.301-2.625-1.301-1.071 0-1.934.426-2.59 1.278-.657.851-.985 2.07-.985 3.656z" fill="#333"/>
  <path fill="#C4C4C4" d="M657 464h381v55H657zM657 548h381v55H657z"/>
  <path fill="#0073AA" d="M854 626h184v40H854z"/>
  <path d="M920.242 652.16h8.086V654H917.98v-17.062h2.262v15.222zm9.738-4.617c0-1.242.243-2.359.727-3.352.492-.992 1.172-1.757 2.039-2.296.875-.54 1.871-.809 2.988-.809 1.727 0 3.121.598 4.184 1.793 1.07 1.195 1.605 2.785 1.605 4.769v.153c0 1.234-.238 2.344-.714 3.328-.469.976-1.145 1.738-2.028 2.285-.875.547-1.883.82-3.023.82-1.719 0-3.113-.597-4.184-1.793-1.062-1.195-1.594-2.777-1.594-4.746v-.152zm2.18.258c0 1.406.324 2.535.973 3.387.656.851 1.531 1.277 2.625 1.277 1.101 0 1.976-.43 2.625-1.289.648-.867.972-2.078.972-3.633 0-1.391-.332-2.516-.996-3.375-.656-.867-1.531-1.301-2.625-1.301-1.07 0-1.933.426-2.589 1.278-.657.851-.985 2.07-.985 3.656zm11.567-.246c0-1.977.457-3.547 1.371-4.711.914-1.172 2.125-1.758 3.632-1.758 1.547 0 2.754.547 3.622 1.641l.105-1.407h1.981v12.375c0 1.641-.489 2.934-1.465 3.879-.969.946-2.274 1.418-3.914 1.418a6.518 6.518 0 01-2.684-.586c-.875-.39-1.543-.926-2.004-1.605l1.125-1.301c.93 1.148 2.066 1.723 3.41 1.723 1.055 0 1.875-.297 2.461-.891.594-.594.891-1.43.891-2.508v-1.09c-.867 1-2.051 1.5-3.551 1.5-1.484 0-2.687-.597-3.609-1.793-.914-1.195-1.371-2.824-1.371-4.886zm2.179.246c0 1.429.293 2.554.879 3.375.586.812 1.406 1.219 2.461 1.219 1.367 0 2.371-.622 3.012-1.864v-5.789c-.664-1.211-1.66-1.816-2.988-1.816-1.055 0-1.879.41-2.473 1.23-.594.821-.891 2.035-.891 3.645zM960.074 654h-2.168v-12.68h2.168V654zm-2.344-16.043c0-.352.106-.648.317-.891.219-.242.539-.363.961-.363.422 0 .742.121.961.363.219.243.328.539.328.891s-.109.645-.328.879c-.219.234-.539.352-.961.352-.422 0-.742-.118-.961-.352-.211-.234-.317-.527-.317-.879zm7.875 3.363l.071 1.594c.969-1.219 2.234-1.828 3.797-1.828 2.679 0 4.031 1.512 4.054 4.535V654h-2.168v-8.391c-.007-.914-.218-1.589-.632-2.027-.407-.437-1.043-.656-1.911-.656-.703 0-1.32.187-1.851.562a3.82 3.82 0 00-1.242 1.477V654h-2.168v-12.68h2.05z" fill="#fff"/>
  <path d="M663.645 649.604h-4.177V654h-1.313v-9.953h6.166v1.08h-4.853v3.404h4.177v1.073zm1.565.629c0-.724.141-1.376.424-1.955.287-.578.683-1.025 1.189-1.34.511-.314 1.092-.471 1.743-.471 1.008 0 1.821.348 2.441 1.046.624.697.936 1.624.936 2.782v.089c0 .72-.139 1.367-.417 1.941a3.109 3.109 0 01-1.182 1.333c-.511.319-1.099.479-1.764.479-1.003 0-1.816-.349-2.44-1.046-.62-.697-.93-1.62-.93-2.769v-.089zm1.271.151c0 .82.19 1.479.568 1.975.383.497.893.745 1.531.745.643 0 1.153-.25 1.531-.751.379-.506.568-1.213.568-2.12 0-.811-.194-1.467-.581-1.968-.383-.506-.894-.759-1.532-.759-.624 0-1.128.248-1.51.745-.383.497-.575 1.208-.575 2.133zm10.623-2.646a3.768 3.768 0 00-.622-.048c-.829 0-1.392.354-1.688 1.06V654h-1.265v-7.396h1.231l.02.854c.415-.661 1.003-.991 1.764-.991.246 0 .433.032.56.095v1.176zm.732 2.502c0-1.153.267-2.069.8-2.748.533-.683 1.239-1.025 2.119-1.025.902 0 1.606.319 2.112.957l.062-.82h1.155v7.218c0 .957-.285 1.712-.855 2.263-.565.551-1.326.827-2.283.827a3.8 3.8 0 01-1.565-.342c-.511-.228-.9-.54-1.169-.936l.656-.759c.542.67 1.206 1.005 1.989 1.005.616 0 1.094-.173 1.436-.52.346-.346.519-.834.519-1.463v-.635c-.505.583-1.196.875-2.071.875-.866 0-1.567-.349-2.105-1.046-.533-.697-.8-1.648-.8-2.851zm1.271.144c0 .834.171 1.49.513 1.969.342.473.82.71 1.436.71.797 0 1.383-.362 1.756-1.086V648.6c-.387-.707-.968-1.06-1.743-1.06-.615 0-1.096.239-1.442.718-.346.478-.52 1.187-.52 2.126zm6.556-.151c0-.724.141-1.376.424-1.955a3.23 3.23 0 011.189-1.34c.511-.314 1.092-.471 1.744-.471 1.007 0 1.82.348 2.44 1.046.624.697.936 1.624.936 2.782v.089c0 .72-.139 1.367-.417 1.941a3.109 3.109 0 01-1.182 1.333c-.511.319-1.098.479-1.764.479-1.002 0-1.816-.349-2.44-1.046-.62-.697-.93-1.62-.93-2.769v-.089zm1.272.151c0 .82.189 1.479.567 1.975.383.497.893.745 1.531.745.643 0 1.153-.25 1.531-.751.379-.506.568-1.213.568-2.12 0-.811-.194-1.467-.581-1.968-.383-.506-.893-.759-1.531-.759-.625 0-1.128.248-1.511.745s-.574 1.208-.574 2.133zm8.763-5.572v1.792h1.381v.977h-1.381v4.587c0 .296.062.52.185.67.123.146.332.219.629.219.146 0 .346-.028.601-.082V654a3.667 3.667 0 01-.97.137c-.566 0-.992-.171-1.279-.513-.287-.342-.43-.827-.43-1.456v-4.587h-1.347v-.977h1.347v-1.792h1.264zm7.848 5.292V654h-1.313v-9.953h3.671c1.089 0 1.942.278 2.557.834.62.556.93 1.292.93 2.208 0 .966-.303 1.711-.91 2.235-.601.52-1.465.78-2.59.78h-2.345zm0-1.074h2.358c.702 0 1.24-.164 1.614-.492.373-.333.56-.811.56-1.435 0-.593-.187-1.067-.56-1.422-.374-.356-.887-.54-1.539-.554h-2.433v3.903zm11.806 4.97c-.073-.146-.133-.406-.178-.779-.588.61-1.29.916-2.106.916-.729 0-1.328-.205-1.797-.616a2.014 2.014 0 01-.698-1.572c0-.77.292-1.367.875-1.791.588-.428 1.413-.642 2.475-.642h1.23v-.581c0-.442-.132-.793-.396-1.053-.264-.264-.654-.397-1.169-.397-.451 0-.83.114-1.135.342-.305.228-.458.504-.458.827h-1.271c0-.369.13-.724.389-1.066.265-.346.62-.62 1.067-.82a3.6 3.6 0 011.483-.301c.852 0 1.52.214 2.003.642.483.424.734 1.01.752 1.757v3.405c0 .679.087 1.219.26 1.62V654h-1.326zm-2.099-.964c.396 0 .772-.102 1.128-.307.355-.206.613-.472.772-.8v-1.518h-.991c-1.549 0-2.324.454-2.324 1.36 0 .397.132.707.396.93.265.223.604.335 1.019.335zm9.454-.998c0-.342-.13-.606-.39-.793-.255-.191-.704-.355-1.346-.492-.638-.137-1.146-.301-1.525-.492-.373-.192-.651-.42-.834-.684a1.655 1.655 0 01-.266-.943c0-.606.255-1.119.765-1.538.515-.42 1.172-.629 1.969-.629.839 0 1.518.216 2.037.649.524.433.786.987.786 1.661h-1.271c0-.346-.148-.645-.444-.895-.292-.251-.661-.376-1.108-.376-.46 0-.82.1-1.08.301-.26.2-.39.462-.39.786 0 .305.121.535.363.69.241.155.676.303 1.305.445.634.141 1.146.309 1.538.505.392.196.682.433.869.711.191.274.287.609.287 1.005 0 .661-.265 1.192-.793 1.593-.529.396-1.215.595-2.058.595-.592 0-1.116-.105-1.572-.315a2.578 2.578 0 01-1.073-.875 2.139 2.139 0 01-.383-1.223h1.264c.023.423.192.761.506 1.011.319.246.739.369 1.258.369.479 0 .861-.095 1.149-.287.291-.196.437-.455.437-.779zm7.219 0c0-.342-.13-.606-.39-.793-.255-.191-.704-.355-1.347-.492-.638-.137-1.146-.301-1.524-.492-.374-.192-.652-.42-.834-.684a1.648 1.648 0 01-.267-.943c0-.606.256-1.119.766-1.538.515-.42 1.171-.629 1.969-.629.838 0 1.517.216 2.037.649.524.433.786.987.786 1.661h-1.271c0-.346-.149-.645-.445-.895-.291-.251-.661-.376-1.107-.376-.46 0-.82.1-1.08.301-.26.2-.39.462-.39.786 0 .305.121.535.362.69.242.155.677.303 1.306.445.634.141 1.146.309 1.538.505.392.196.681.433.868.711.192.274.287.609.287 1.005 0 .661-.264 1.192-.793 1.593-.528.396-1.214.595-2.057.595-.593 0-1.117-.105-1.572-.315a2.587 2.587 0 01-1.074-.875 2.145 2.145 0 01-.382-1.223h1.264c.023.423.192.761.506 1.011.319.246.738.369 1.258.369.478 0 .861-.095 1.148-.287.292-.196.438-.455.438-.779zm9.461.219l1.422-5.653h1.264L739.92 654h-1.025l-1.798-5.605-1.75 5.605h-1.026l-2.146-7.396h1.258l1.456 5.537 1.722-5.537h1.019l1.757 5.653zm3.643-2.024c0-.724.142-1.376.424-1.955a3.226 3.226 0 011.19-1.34c.51-.314 1.091-.471 1.743-.471 1.007 0 1.82.348 2.44 1.046.624.697.937 1.624.937 2.782v.089c0 .72-.139 1.367-.417 1.941a3.117 3.117 0 01-1.183 1.333c-.51.319-1.098.479-1.764.479-1.002 0-1.816-.349-2.44-1.046-.62-.697-.93-1.62-.93-2.769v-.089zm1.272.151c0 .82.189 1.479.567 1.975.383.497.893.745 1.531.745.643 0 1.153-.25 1.532-.751.378-.506.567-1.213.567-2.12 0-.811-.194-1.467-.581-1.968-.383-.506-.893-.759-1.531-.759-.625 0-1.128.248-1.511.745s-.574 1.208-.574 2.133zm10.623-2.646a3.785 3.785 0 00-.622-.048c-.83 0-1.393.354-1.689 1.06V654h-1.264v-7.396h1.23l.021.854c.414-.661 1.002-.991 1.763-.991.246 0 .433.032.561.095v1.176zm.724 2.502c0-1.135.269-2.046.807-2.734.538-.693 1.242-1.039 2.112-1.039.866 0 1.552.296 2.058.888V643.5h1.265V654h-1.162l-.062-.793c-.506.62-1.21.93-2.112.93-.857 0-1.557-.351-2.099-1.053-.538-.702-.807-1.618-.807-2.748v-.096zm1.265.144c0 .838.173 1.495.52 1.969.346.473.824.71 1.435.71.802 0 1.388-.36 1.757-1.08v-3.397c-.378-.697-.959-1.046-1.743-1.046-.62 0-1.103.239-1.449.718-.347.478-.52 1.187-.52 2.126zm11.901.813c.01-.542.071-.97.185-1.285.114-.314.346-.663.697-1.046l.896-.923c.383-.433.574-.897.574-1.394 0-.479-.125-.852-.376-1.121-.251-.274-.615-.41-1.094-.41-.465 0-.838.123-1.121.369-.282.246-.424.576-.424.991h-1.264c.009-.738.271-1.333.786-1.784.519-.456 1.194-.684 2.023-.684.862 0 1.532.233 2.01.697.483.461.725 1.094.725 1.901 0 .797-.37 1.583-1.108 2.358l-.745.738c-.333.37-.499.901-.499 1.593h-1.265zm-.054 2.167c0-.205.061-.376.184-.512.128-.142.315-.212.561-.212.246 0 .433.07.56.212a.718.718 0 01.192.512.722.722 0 01-.192.513c-.127.132-.314.198-.56.198-.246 0-.433-.066-.561-.198a.739.739 0 01-.184-.513z" fill="#000"/>
</svg>