<svg width="1700" height="1073" viewBox="0 0 1700 1073" fill="none" xmlns="http://www.w3.org/2000/svg">
<rect width="1700" height="1073" fill="#20A39E"/>
<path d="M1098 513.5C1098 718.075 1027.97 847 849.5 847C694.331 847 601 745.778 601 513.5C601 322.387 663.984 180 849.5 180C1033.12 180 1098 308.536 1098 513.5Z" fill="black"/>
<path fill-rule="evenodd" clip-rule="evenodd" d="M1015.61 376.527C1015.61 378.257 1015.54 379.974 1015.41 381.674H1015.61L1036 675.782C1036 675.782 1036 771 849.957 771C663.913 771 663.703 675.782 663.703 675.782L679.259 381.674H679.463C679.328 379.974 679.26 378.257 679.26 376.527C679.26 335.919 716.907 303 763.347 303C809.683 303 847.265 335.771 847.434 376.253C847.603 335.771 885.185 303 931.521 303C977.961 303 1015.61 335.919 1015.61 376.527ZM847.434 376.801C847.441 378.439 847.509 380.063 847.636 381.674H847.232C847.359 380.063 847.427 378.439 847.434 376.801Z" fill="white"/>
<path d="M664 854C664 837.431 677.431 824 694 824H1006C1022.57 824 1036 837.431 1036 854V870H664V854Z" fill="black"/>
<ellipse cx="1112.35" cy="643.478" rx="37.5" ry="153" transform="rotate(-15.2215 1112.35 643.478)" fill="black"/>
<ellipse cx="595.475" cy="642.735" rx="37.5" ry="153" transform="rotate(8.01833 595.475 642.735)" fill="black"/>
<path d="M807.574 513.574C818.826 502.321 834.087 496 850 496C865.913 496 881.174 502.321 892.426 513.574L850 556L807.574 513.574Z" fill="black"/>
<circle cx="932" cy="425" r="35.5" stroke="black" stroke-width="11"/>
<ellipse cx="937" cy="433" rx="24" ry="22" fill="black"/>
<circle cx="782" cy="425" r="35.5" stroke="black" stroke-width="11"/>
<ellipse cx="787" cy="433" rx="24" ry="22" fill="black"/>
<path d="M894 671.5C894 694.229 876.635 712 856 712C835.365 712 818 694.229 818 671.5C818 648.771 835.365 631 856 631C876.635 631 894 648.771 894 671.5Z" stroke="black" stroke-width="14"/>
</svg>
