<svg fill="none" xmlns="http://www.w3.org/2000/svg" viewBox="0 0 1700 1073">
  <g clip-path="url(#clip0)">
    <path fill="#C7E8CA" d="M0 0h1700v1073H0z"/>
    <path fill="#C4C4C4" stroke="#FF8C00" stroke-width="85" d="M-645.5 641.5h3588v622h-3588z"/>
    <path d="M-94.5 906H1721" stroke="#fff" stroke-width="28" stroke-linejoin="round" stroke-dasharray="400 300"/>
    <path d="M154.668 957.051h-23.751a7.917 7.917 0 100 15.834h23.751a7.917 7.917 0 100-15.834z" fill="#A9A9A9"/>
    <path d="M210.085 771l-79.171 110.839v15.834l19.793 91.046 613.572-7.917c39.585-71.253 39.585-91.046 19.792-91.046l-146.465-19.793L526.767 771H210.085z" fill="orange"/>
    <path d="M783.417 909.903l-177.706-16.64-86.821-112.32H218.705l-75.031 108.16 11.847 83.2h7.898l35.541-54.08h78.981l31.592 54.08m264.585 0h11.848l39.49-54.08h78.981l39.49 54.08h7.898" stroke="#000" stroke-width=".792"/>
    <path d="M550.52 794.751l59.377 75.212h27.71l-87.087-75.212z" fill="#D3D3D3" stroke="#000" stroke-width="1.188"/>
    <path d="M558.849 880.807v92.078H380.715v-92.078" fill="#FF8C00"/>
    <path d="M558.849 880.807v92.078H380.715v-92.078" stroke="#000" stroke-width="1.979"/>
    <path d="M348.638 801.58H229.882s-19.793 0-27.71 22.044l-31.668 52.905s0 13.227 7.917 13.227h170.217V801.58z" fill="#D3D3D3" stroke="#000" stroke-width="3.959" stroke-linecap="round"/>
    <path d="M380.061 801.58h118.881s19.814 0 27.739 21.901l31.702 52.561s0 13.14-7.926 13.14H380.061V801.58z" fill="#D3D3D3" stroke="#000" stroke-width="4.005" stroke-linecap="round"/>
    <path d="M237.383 1040.18c28.421 0 51.461-23.04 51.461-51.461s-23.04-51.461-51.461-51.461-51.461 23.04-51.461 51.461 23.04 51.461 51.461 51.461zM664.154 1039.58c28.421 0 51.461-23.04 51.461-51.461s-23.04-51.461-51.461-51.461-51.461 23.04-51.461 51.461 23.04 51.461 51.461 51.461z" fill="gray" stroke="#000" stroke-width="19.793"/>
    <path d="M799.908 937.258l-11.876 19.793h-27.71v-19.793h39.586z" fill="#D3D3D3"/>
    <path d="M1231.16 20l87.2 201.378h-174.4L1231.16 20z" fill="#3E938F"/>
    <path d="M1232.62 84.207l131.43 304.256h-262.86l131.43-304.256z" fill="#3E938F"/>
    <path d="M1237 180.519l170.61 394h-341.22l170.61-394zM799.604-241L917.566 31.422H681.641L799.604-241z" fill="#3E938F"/>
    <path d="M801.577-154.141l177.798 411.595H623.779l177.798-411.595z" fill="#3E938F"/>
    <path d="M807.5-23.852l230.8 533H576.704l230.796-533zM1571.91-241l120.38 278.012h-240.76L1571.91-241z" fill="#3E938F"/>
    <path d="M1573.93-152.359l181.44 420.04h-362.89l181.45-420.04z" fill="#3E938F"/>
    <path d="M1579.97-19.396L1815.5 524.54h-471.06l235.53-543.936z" fill="#3E938F"/>
  </g>
  <defs>
    <clipPath id="clip0">
      <path fill="#fff" d="M0 0h1700v1073H0z"/>
    </clipPath>
  </defs>
</svg>