<svg fill="none" xmlns="http://www.w3.org/2000/svg" viewBox="0 0 1700 1073">
  <g clip-path="url(#clip0)">
    <path fill="#0073AA" d="M0 0h1700v1073H0z"/>
    <ellipse cx="1480" cy="812" rx="430" ry="150" fill="#1C9994"/>
    <path fill="#20A39E" d="M0 701h1700v372H0z"/>
    <ellipse cx="290.5" cy="-15.5" rx="493.5" ry="131.5" fill="#1E77A2"/>
    <ellipse cx="986.5" cy="-58" rx="407.5" ry="108" fill="#1E77A2"/>
    <ellipse cx="1460.5" cy="-15.5" rx="407.5" ry="131.5" fill="#1E77A2"/>
    <path d="M60.5 511l29.878 69H30.622L60.5 511z" fill="#3E938F"/>
    <path d="M61 533l45.033 104.25H15.967L61 533z" fill="#3E938F"/>
    <path d="M62.5 566l58.457 135H4.043L62.5 566zM181.5 557l29.878 69h-59.756l29.878-69z" fill="#3E938F"/>
    <path d="M182 579l45.033 104.25h-90.066L182 579z" fill="#3E938F"/>
    <path d="M183.5 612l58.457 135H125.043L183.5 612zM325.5 577l29.878 69h-59.756l29.878-69z" fill="#3E938F"/>
    <path d="M326 599l45.033 104.25h-90.066L326 599z" fill="#3E938F"/>
    <path d="M327.5 632l58.457 135H269.043L327.5 632zM455.5 537l29.878 69h-59.756l29.878-69z" fill="#3E938F"/>
    <path d="M456 559l45.033 104.25h-90.066L456 559z" fill="#3E938F"/>
    <path d="M457.5 592l58.457 135H399.043L457.5 592zM604.5 558l29.878 69h-59.756l29.878-69z" fill="#3E938F"/>
    <path d="M605 580l45.033 104.25h-90.066L605 580z" fill="#3E938F"/>
    <path d="M606.5 613l58.457 135H548.043L606.5 613zM755.5 600l29.878 69h-59.756l29.878-69z" fill="#3E938F"/>
    <path d="M756 622l45.033 104.25h-90.066L756 622z" fill="#3E938F"/>
    <path d="M757.5 655l58.457 135H699.043L757.5 655zM695.5 594l29.878 69h-59.756l29.878-69z" fill="#3E938F"/>
    <path d="M696 616l45.033 104.25h-90.066L696 616z" fill="#3E938F"/>
    <path d="M697.5 649l58.457 135H639.043L697.5 649zM804.5 587l29.878 69h-59.756l29.878-69z" fill="#3E938F"/>
    <path d="M805 609l45.033 104.25h-90.066L805 609z" fill="#3E938F"/>
    <path d="M806.5 642l58.457 135H748.043L806.5 642zM966.5 580l29.878 69h-59.756l29.878-69z" fill="#3E938F"/>
    <path d="M967 602l45.03 104.25h-90.063L967 602z" fill="#3E938F"/>
    <path d="M968.5 635l58.46 135H910.043L968.5 635zM1173.5 517l29.88 69h-59.76l29.88-69z" fill="#3E938F"/>
    <path d="M1174 539l45.03 104.25h-90.06L1174 539z" fill="#3E938F"/>
    <path d="M1175.5 572l58.46 135h-116.92l58.46-135zM1359.5 531l29.88 69h-59.76l29.88-69z" fill="#3E938F"/>
    <path d="M1360 553l45.03 104.25h-90.06L1360 553z" fill="#3E938F"/>
    <path d="M1361.5 586l58.46 135h-116.92l58.46-135zM1477.5 526l29.88 69h-59.76l29.88-69z" fill="#3E938F"/>
    <path d="M1478 548l45.03 104.25h-90.06L1478 548z" fill="#3E938F"/>
    <path d="M1479.5 581l58.46 135h-116.92l58.46-135zM1633.5 559l29.88 69h-59.76l29.88-69z" fill="#3E938F"/>
    <path d="M1634 581l45.03 104.25h-90.06L1634 581z" fill="#3E938F"/>
    <path d="M1635.5 614l58.46 135h-116.92l58.46-135z" fill="#3E938F"/>
    <path fill="#C4C4C4" d="M-220 871h1984v381.892H-220z"/>
    <path d="M-63 1006.83h1827" stroke="#fff" stroke-width="20.644" stroke-linejoin="round" stroke-dasharray="294.91 221.18"/>
    <path d="M780.934 1085.47c-21.87-22.01 53.855-102.666 69.743-112.898 82.151-27.379 34.698 55.038 59.231 55.038 34.522 0 17.523 37.05 20.327 63.51 7.455 70.36-43.047 16.84-64.837-5.65-15.482-15.97-62.595 22.02-84.464 0zM289.879 829.841c-15.689-15.766 38.634-73.524 50.032-80.851 58.933-19.606 24.891 39.415 42.49 39.415 24.766 0 12.571 26.529 14.583 45.478 5.348 50.387-30.881 12.057-46.513-4.042-11.106-11.439-44.904 15.766-60.592 0zM147.61 841.909c-9.163-9.24 22.564-43.089 29.221-47.384 34.418-11.49 14.537 23.1 24.815 23.1 14.464 0 7.342 15.548 8.517 26.653 3.124 29.53-18.035 7.066-27.165-2.369-6.486-6.703-26.225 9.24-35.388 0zM501.145 796.401c.259-16.933 60.623-18.148 70.676-15.851 42.01 21.616-8.264 34.537 1.089 44.111 13.161 13.472-7.785 20.97-17.049 32.159-24.633 29.75-22.986-10.377-22.515-27.457.335-12.135-32.46-16.029-32.201-32.962zM20.398 791.729c.26-16.933 60.623-18.148 70.675-15.851 42.011 21.616-8.263 34.537 1.09 44.111 13.161 13.472-7.785 20.97-17.05 32.159-24.632 29.75-22.985-10.377-22.514-27.457.335-12.134-32.46-16.029-32.201-32.962zM1332.34 824.102c-17.96-18.045 44.22-84.149 57.26-92.535 67.45-22.44 28.49 45.111 48.63 45.111 28.35 0 14.39 30.363 16.69 52.05 6.12 57.669-35.34 13.8-53.23-4.626-12.72-13.092-51.4 18.044-69.35 0zM1169.51 837.914c-10.49-10.575 25.82-49.316 33.44-54.231 39.4-13.151 16.64 26.438 28.4 26.438 16.56 0 8.41 17.794 9.75 30.505 3.58 33.797-20.64 8.087-31.09-2.712-7.42-7.672-30.01 10.575-40.5 0zM1574.14 785.83c.29-19.38 69.38-20.771 80.89-18.142 48.08 24.739-9.46 39.528 1.24 50.485 15.07 15.42-8.91 24.001-19.51 36.807-28.19 34.049-26.31-11.876-25.77-31.425.38-13.888-37.15-18.345-36.85-37.725zM1023.91 780.483c.3-19.381 69.39-20.772 80.89-18.142 48.08 24.739-9.46 39.527 1.25 50.485 15.06 15.42-8.91 24.001-19.52 36.807-28.19 34.049-26.3-11.877-25.76-31.425.38-13.888-37.16-18.345-36.86-37.725zM603.504 910.829c2.058-4.412 23.464-20.829 23.464-20.829s4.427 23.907 2.582 30.576c-.905 3.273-4.781 9.479-10.398 10.979-5.765 1.539-9.726-1.178-12.662-4.104-5.765-5.746-5.043-12.21-2.986-16.622z" fill="#A8DFFA"/>
    <path d="M358.07 966.913h-21.052a7.018 7.018 0 100 14.035h21.052a7.018 7.018 0 100-14.035z" fill="#A9A9A9"/>
    <path d="M407.191 802l-70.175 98.246v14.035l17.544 80.702 543.861-7.018c35.088-63.158 35.088-80.702 17.544-80.702L786.14 889.72 687.894 802H407.191z" fill="orange"/>
    <path d="M915.384 925.122l-157.516-14.75-76.957-99.558H414.832l-66.507 95.871 10.501 73.747h7.001l31.503-47.935h70.008l28.003 47.935m234.524 0h10.501l35.004-47.935h70.007l35.004 47.935h7" stroke="#000" stroke-width=".973"/>
    <path d="M708.946 823.053l52.632 66.666h24.561l-77.193-66.666z" fill="#D3D3D3" stroke="#000" stroke-width="1.46"/>
    <path d="M716 899v82H557v-82" fill="#FF8C00"/>
    <path d="M716 899v82H557v-82" stroke="#000" stroke-width="2.434"/>
    <path d="M530.001 829.106H424.737s-17.544 0-24.561 19.539l-28.071 46.895s0 11.723 7.018 11.723h150.878v-78.157z" fill="#D3D3D3" stroke="#000" stroke-width="4.867" stroke-linecap="round"/>
    <path d="M557.855 829.106H663.23s17.562 0 24.587 19.412l28.1 46.589s0 11.648-7.025 11.648H557.855v-77.649z" fill="#D3D3D3" stroke="#000" stroke-width="4.924" stroke-linecap="round"/>
    <path d="M431.388 1040.6c25.192 0 45.614-20.42 45.614-45.617 0-25.192-20.422-45.614-45.614-45.614-25.192 0-45.615 20.422-45.615 45.614 0 25.197 20.423 45.617 45.615 45.617zM809.672 1040.06c25.192 0 45.614-20.42 45.614-45.609 0-25.192-20.422-45.614-45.614-45.614-25.192 0-45.614 20.422-45.614 45.614 0 25.189 20.422 45.609 45.614 45.609z" fill="gray" stroke="#000" stroke-width="24.335"/>
    <path d="M930 949.369l-10.526 17.544h-24.562v-17.544H930z" fill="#D3D3D3"/>
    <path d="M649.708 82.573c1.969-4.224 22.464-19.941 22.464-19.941s4.238 22.888 2.472 29.273c-.867 3.133-4.577 9.075-9.955 10.511-5.519 1.474-9.312-1.128-12.123-3.93-5.519-5.5-4.828-11.689-2.858-15.913zM649.708 270.222c1.969-4.224 22.464-19.941 22.464-19.941s4.238 22.888 2.472 29.273c-.867 3.133-4.577 9.076-9.955 10.511-5.519 1.474-9.312-1.127-12.123-3.929-5.519-5.501-4.828-11.69-2.858-15.914zM498.44 209.906c1.97-4.224 22.465-19.941 22.465-19.941s4.238 22.888 2.471 29.273c-.866 3.134-4.577 9.076-9.954 10.511-5.52 1.474-9.312-1.127-12.124-3.929-5.519-5.501-4.828-11.69-2.858-15.914zM663.113 491.38c1.97-4.224 22.464-19.941 22.464-19.941s4.239 22.888 2.472 29.273c-.866 3.133-4.577 9.076-9.955 10.511-5.519 1.474-9.311-1.127-12.123-3.929-5.519-5.501-4.828-11.69-2.858-15.914zM676.515 368.834c1.97-4.224 22.465-19.942 22.465-19.942s4.238 22.889 2.472 29.274c-.867 3.133-4.578 9.075-9.955 10.511-5.52 1.473-9.312-1.128-12.123-3.929-5.52-5.502-4.828-11.69-2.859-15.914zM511.845 417.661c1.97-4.224 22.465-19.941 22.465-19.941s4.238 22.888 2.472 29.273c-.867 3.133-4.578 9.075-9.955 10.511-5.52 1.473-9.312-1.128-12.123-3.929-5.52-5.501-4.828-11.69-2.859-15.914zM787.574 436.809c1.97-4.224 22.464-19.942 22.464-19.942s4.238 22.889 2.472 29.274c-.867 3.133-4.577 9.075-9.955 10.511-5.519 1.473-9.312-1.128-12.123-3.93-5.519-5.501-4.828-11.689-2.858-15.913zM1003.94-17.953c1.97-4.224 22.47-19.942 22.47-19.942s4.24 22.889 2.47 29.274c-.87 3.133-4.58 9.075-9.95 10.51-5.52 1.474-9.32-1.127-12.13-3.929-5.52-5.5-4.82-11.69-2.86-15.913zM952.245 95.976c1.97-4.224 22.464-19.94 22.464-19.94s4.238 22.887 2.472 29.273c-.867 3.133-4.577 9.075-9.955 10.511-5.519 1.473-9.312-1.128-12.123-3.93-5.519-5.501-4.828-11.69-2.858-15.914zM1023.09 82.573c1.97-4.224 22.46-19.941 22.46-19.941s4.24 22.888 2.48 29.273c-.87 3.133-4.58 9.075-9.96 10.511-5.52 1.474-9.31-1.128-12.12-3.93-5.52-5.5-4.83-11.689-2.86-15.913zM814.381 149.591c1.969-4.225 22.464-19.942 22.464-19.942s4.238 22.889 2.472 29.274c-.867 3.133-4.578 9.075-9.955 10.511-5.52 1.473-9.312-1.128-12.123-3.93-5.52-5.501-4.828-11.689-2.858-15.913zM917.779 209.906c1.97-4.224 22.464-19.941 22.464-19.941s4.239 22.888 2.472 29.273c-.866 3.134-4.577 9.076-9.955 10.511-5.519 1.474-9.311-1.127-12.123-3.929-5.519-5.501-4.828-11.69-2.858-15.914zM1158.08-17.953c1.97-4.224 22.47-19.942 22.47-19.942s4.24 22.889 2.47 29.274c-.87 3.133-4.58 9.075-9.95 10.51-5.52 1.474-9.32-1.127-12.13-3.929-5.52-5.5-4.83-11.69-2.86-15.913zM1017.35 263.52c1.97-4.224 22.46-19.941 22.46-19.941s4.24 22.888 2.47 29.274c-.86 3.133-4.57 9.075-9.95 10.51-5.52 1.474-9.31-1.127-12.12-3.929-5.52-5.501-4.83-11.69-2.86-15.914zM1088.2 250.117c1.97-4.224 22.46-19.941 22.46-19.941s4.24 22.888 2.47 29.273c-.86 3.133-4.58 9.075-9.95 10.511-5.52 1.473-9.31-1.128-12.13-3.929-5.52-5.501-4.82-11.69-2.85-15.914zM814.381 290.327c1.969-4.224 22.464-19.941 22.464-19.941s4.238 22.888 2.472 29.274c-.867 3.133-4.578 9.075-9.955 10.511-5.52 1.473-9.312-1.128-12.123-3.93-5.52-5.501-4.828-11.69-2.858-15.914zM945.542 303.731c1.969-4.224 22.464-19.941 22.464-19.941s4.238 22.888 2.472 29.273c-.867 3.133-4.577 9.075-9.955 10.511-5.519 1.474-9.312-1.128-12.123-3.929-5.519-5.501-4.828-11.69-2.858-15.914zM1074.79 504.784c1.97-4.224 22.47-19.942 22.47-19.942s4.23 22.889 2.47 29.274c-.87 3.133-4.58 9.075-9.96 10.511-5.52 1.473-9.31-1.128-12.12-3.93-5.52-5.501-4.83-11.689-2.86-15.913zM1043.2 364.047c1.97-4.224 22.46-19.942 22.46-19.942s4.24 22.889 2.47 29.274c-.86 3.133-4.57 9.075-9.95 10.511-5.52 1.473-9.31-1.128-12.12-3.929-5.52-5.502-4.83-11.69-2.86-15.914zM899.588 524.889c1.969-4.224 22.464-19.941 22.464-19.941s4.238 22.888 2.472 29.273c-.867 3.133-4.578 9.075-9.955 10.511-5.52 1.474-9.312-1.128-12.123-3.929-5.52-5.501-4.828-11.69-2.858-15.914zM760.765 617.756c1.97-4.224 22.465-19.941 22.465-19.941s4.238 22.888 2.472 29.273c-.867 3.133-4.578 9.076-9.955 10.511-5.52 1.474-9.312-1.127-12.123-3.929-5.52-5.501-4.828-11.69-2.859-15.914zM952.245 617.756c1.97-4.224 22.464-19.941 22.464-19.941s4.238 22.888 2.472 29.273c-.867 3.133-4.577 9.076-9.955 10.511-5.519 1.474-9.312-1.127-12.123-3.929-5.519-5.501-4.828-11.69-2.858-15.914zM904.375 720.197c1.969-4.224 22.464-19.941 22.464-19.941s4.238 22.888 2.472 29.273c-.867 3.134-4.577 9.076-9.955 10.511-5.519 1.474-9.312-1.127-12.123-3.929-5.519-5.501-4.828-11.69-2.858-15.914zM1043.2 760.408c1.97-4.224 22.46-19.941 22.46-19.941s4.24 22.888 2.47 29.273c-.86 3.133-4.57 9.075-9.95 10.511-5.52 1.474-9.31-1.127-12.12-3.929-5.52-5.501-4.83-11.69-2.86-15.914zM1250.95 102.678c1.97-4.224 22.47-19.941 22.47-19.941s4.23 22.888 2.47 29.273c-.87 3.133-4.58 9.076-9.96 10.511-5.52 1.474-9.31-1.127-12.12-3.929-5.52-5.501-4.83-11.69-2.86-15.914zM1342.86 62.468c1.97-4.224 22.46-19.942 22.46-19.942s4.24 22.889 2.48 29.274c-.87 3.133-4.58 9.075-9.96 10.51-5.52 1.474-9.31-1.127-12.12-3.929-5.52-5.5-4.83-11.69-2.86-15.913zM1342.86 189.801c1.97-4.224 22.46-19.941 22.46-19.941s4.24 22.888 2.48 29.273c-.87 3.133-4.58 9.076-9.96 10.511-5.52 1.474-9.31-1.127-12.12-3.929-5.52-5.501-4.83-11.69-2.86-15.914zM1459.66 102.678c1.97-4.224 22.47-19.941 22.47-19.941s4.24 22.888 2.47 29.273c-.87 3.133-4.58 9.076-9.96 10.511-5.52 1.474-9.31-1.127-12.12-3.929-5.52-5.501-4.83-11.69-2.86-15.914zM1199.25 209.906c1.97-4.224 22.47-19.941 22.47-19.941s4.24 22.888 2.47 29.273c-.87 3.134-4.58 9.076-9.96 10.511-5.52 1.474-9.31-1.127-12.12-3.929-5.52-5.501-4.83-11.69-2.86-15.914zM1316.06 297.029c1.97-4.224 22.46-19.941 22.46-19.941s4.24 22.888 2.47 29.273c-.87 3.133-4.58 9.076-9.95 10.511-5.52 1.474-9.32-1.127-12.13-3.929-5.52-5.501-4.82-11.69-2.85-15.914zM1250.95 471.275c1.97-4.224 22.47-19.941 22.47-19.941s4.23 22.888 2.47 29.273c-.87 3.133-4.58 9.075-9.96 10.511-5.52 1.473-9.31-1.128-12.12-3.929-5.52-5.501-4.83-11.69-2.86-15.914zM1419.45 451.17c1.97-4.224 22.47-19.942 22.47-19.942s4.24 22.889 2.47 29.274c-.87 3.133-4.58 9.075-9.95 10.511-5.52 1.473-9.32-1.128-12.13-3.93-5.52-5.501-4.83-11.689-2.86-15.913zM1406.05 565.099c1.97-4.224 22.46-19.941 22.46-19.941s4.24 22.888 2.48 29.274c-.87 3.133-4.58 9.075-9.96 10.511-5.52 1.473-9.31-1.128-12.12-3.93-5.52-5.501-4.83-11.69-2.86-15.914zM1677.95 2.152c1.97-4.224 22.46-19.942 22.46-19.942s4.24 22.889 2.47 29.274c-.86 3.133-4.57 9.075-9.95 10.51-5.52 1.474-9.31-1.127-12.12-3.928-5.52-5.501-4.83-11.69-2.86-15.914zM1605.19 129.485c1.97-4.224 22.46-19.941 22.46-19.941s4.24 22.888 2.47 29.273c-.86 3.133-4.57 9.076-9.95 10.511-5.52 1.474-9.31-1.127-12.12-3.929-5.52-5.501-4.83-11.69-2.86-15.914zM1670.29 189.801c1.97-4.224 22.46-19.941 22.46-19.941s4.24 22.888 2.48 29.273c-.87 3.133-4.58 9.076-9.96 10.511-5.52 1.474-9.31-1.127-12.12-3.929-5.52-5.501-4.83-11.69-2.86-15.914zM1486.47 297.029c1.97-4.224 22.46-19.941 22.46-19.941s4.24 22.888 2.48 29.273c-.87 3.133-4.58 9.076-9.96 10.511-5.52 1.474-9.31-1.127-12.12-3.929-5.52-5.501-4.83-11.69-2.86-15.914zM1605.19 471.275c1.97-4.224 22.46-19.941 22.46-19.941s4.24 22.888 2.47 29.273c-.86 3.133-4.57 9.075-9.95 10.511-5.52 1.473-9.31-1.128-12.12-3.929-5.52-5.501-4.83-11.69-2.86-15.914zM1651.14 337.24c1.97-4.224 22.47-19.942 22.47-19.942s4.23 22.889 2.47 29.274c-.87 3.133-4.58 9.075-9.96 10.511-5.52 1.473-9.31-1.128-12.12-3.93-5.52-5.501-4.83-11.689-2.86-15.913zM1201.17 637.861c1.97-4.224 22.46-19.941 22.46-19.941s4.24 22.888 2.47 29.274c-.86 3.133-4.57 9.075-9.95 10.511-5.52 1.473-9.31-1.128-12.12-3.93-5.52-5.501-4.83-11.69-2.86-15.914zM1578.38 637.861c1.97-4.224 22.47-19.941 22.47-19.941s4.23 22.888 2.47 29.274c-.87 3.133-4.58 9.075-9.96 10.511-5.52 1.473-9.31-1.128-12.12-3.93-5.52-5.501-4.83-11.69-2.86-15.914zM1379.24 740.303c1.97-4.224 22.47-19.942 22.47-19.942s4.24 22.889 2.47 29.274c-.87 3.133-4.58 9.075-9.96 10.511-5.52 1.473-9.31-1.128-12.12-3.93-5.52-5.501-4.83-11.689-2.86-15.913zM41.822 408.444c1.761-3.777 20.087-17.831 20.087-17.831s3.79 20.466 2.21 26.176c-.775 2.801-4.093 8.115-8.901 9.398-4.936 1.318-8.327-1.008-10.84-3.513-4.936-4.919-4.317-10.453-2.556-14.23zM65.793-16.17C67.553-19.945 85.88-34 85.88-34s3.79 20.466 2.21 26.175c-.775 2.802-4.093 8.115-8.901 9.4-4.936 1.317-8.327-1.01-10.84-3.514-4.936-4.92-4.318-10.453-2.556-14.23zM235.297 1.809c1.761-3.777 20.087-17.831 20.087-17.831s3.789 20.466 2.21 26.175c-.775 2.802-4.093 8.115-8.902 9.399-4.935 1.317-8.326-1.008-10.84-3.514-4.935-4.919-4.317-10.452-2.555-14.23zM189.068 103.681c1.761-3.777 20.087-17.83 20.087-17.83s3.79 20.466 2.21 26.175c-.775 2.801-4.093 8.115-8.901 9.399-4.935 1.317-8.326-1.009-10.84-3.514-4.936-4.919-4.317-10.453-2.556-14.23zM252.417 91.696c1.761-3.777 20.087-17.83 20.087-17.83s3.789 20.466 2.21 26.175c-.775 2.801-4.093 8.115-8.901 9.399-4.936 1.317-8.327-1.009-10.841-3.514-4.935-4.919-4.317-10.453-2.555-14.23zM65.793 151.622c1.76-3.777 20.087-17.831 20.087-17.831s3.79 20.466 2.21 26.175c-.775 2.802-4.093 8.115-8.901 9.399-4.936 1.317-8.327-1.008-10.84-3.514-4.936-4.919-4.318-10.452-2.556-14.229zM158.249 205.554c1.761-3.777 20.087-17.831 20.087-17.831s3.789 20.466 2.21 26.176c-.775 2.801-4.093 8.115-8.901 9.398-4.936 1.318-8.327-1.008-10.84-3.513-4.936-4.919-4.318-10.453-2.556-14.23zM373.125 1.809c1.761-3.777 20.087-17.831 20.087-17.831s3.789 20.466 2.21 26.175c-.775 2.802-4.093 8.115-8.901 9.399-4.936 1.317-8.327-1.008-10.841-3.514-4.935-4.919-4.317-10.452-2.555-14.23zM247.28 253.495c1.761-3.777 20.087-17.831 20.087-17.831s3.79 20.466 2.21 26.175c-.775 2.802-4.093 8.115-8.901 9.399-4.936 1.317-8.327-1.009-10.84-3.514-4.936-4.919-4.317-10.452-2.556-14.229zM310.63 241.509c1.761-3.777 20.087-17.83 20.087-17.83s3.789 20.466 2.21 26.175c-.775 2.802-4.093 8.115-8.902 9.399-4.935 1.317-8.326-1.009-10.84-3.514-4.935-4.919-4.317-10.452-2.555-14.23zM65.793 277.465c1.76-3.777 20.087-17.831 20.087-17.831s3.79 20.466 2.21 26.175c-.775 2.802-4.093 8.115-8.901 9.399-4.936 1.317-8.327-1.008-10.84-3.514-4.936-4.919-4.318-10.452-2.556-14.229zM183.074 289.45c1.761-3.777 20.087-17.831 20.087-17.831s3.79 20.466 2.21 26.175c-.775 2.802-4.093 8.115-8.901 9.399-4.936 1.317-8.327-1.008-10.84-3.514-4.936-4.919-4.317-10.452-2.556-14.229zM298.645 469.225c1.761-3.777 20.087-17.831 20.087-17.831s3.79 20.467 2.21 26.176c-.775 2.802-4.093 8.115-8.901 9.399-4.935 1.317-8.326-1.009-10.84-3.514-4.935-4.919-4.317-10.453-2.556-14.23zM270.393 343.382c1.762-3.777 20.087-17.831 20.087-17.831s3.79 20.467 2.211 26.176c-.775 2.801-4.093 8.115-8.902 9.399-4.935 1.317-8.326-1.009-10.84-3.514-4.935-4.919-4.317-10.453-2.556-14.23zM141.983 487.203c1.761-3.777 20.087-17.831 20.087-17.831s3.79 20.466 2.21 26.176c-.775 2.801-4.093 8.114-8.901 9.398-4.935 1.318-8.326-1.008-10.84-3.513-4.936-4.919-4.317-10.453-2.556-14.23zM17.852 570.242c1.761-3.777 20.087-17.831 20.087-17.831s3.79 20.466 2.21 26.176c-.775 2.801-4.093 8.115-8.9 9.398-4.936 1.318-8.327-1.008-10.841-3.513-4.935-4.919-4.317-10.453-2.556-14.23zM189.068 570.242c1.761-3.777 20.087-17.831 20.087-17.831s3.79 20.466 2.21 26.176c-.775 2.801-4.093 8.115-8.901 9.398-4.935 1.318-8.326-1.008-10.84-3.513-4.936-4.919-4.317-10.453-2.556-14.23zM146.262 661.842c1.762-3.777 20.087-17.831 20.087-17.831s3.79 20.466 2.211 26.176c-.775 2.801-4.093 8.115-8.902 9.398-4.935 1.318-8.326-1.008-10.84-3.513-4.935-4.919-4.317-10.453-2.556-14.23zM270.393 697.797c1.762-3.777 20.087-17.831 20.087-17.831s3.79 20.467 2.211 26.176c-.775 2.802-4.093 8.115-8.902 9.399-4.935 1.317-8.326-1.009-10.84-3.514-4.935-4.919-4.317-10.453-2.556-14.23zM456.163 109.674c1.761-3.777 20.087-17.831 20.087-17.831s3.789 20.466 2.21 26.176c-.775 2.801-4.093 8.114-8.901 9.398-4.936 1.318-8.327-1.008-10.84-3.513-4.936-4.919-4.318-10.453-2.556-14.23zM538.345 73.719c1.762-3.777 20.087-17.831 20.087-17.831s3.79 20.466 2.211 26.175c-.775 2.802-4.093 8.115-8.902 9.399-4.935 1.317-8.326-1.008-10.84-3.514-4.935-4.918-4.317-10.452-2.556-14.23zM538.345 187.577c1.762-3.777 20.087-17.831 20.087-17.831s3.79 20.466 2.211 26.175c-.775 2.802-4.093 8.115-8.902 9.399-4.935 1.317-8.326-1.008-10.84-3.514-4.935-4.918-4.317-10.452-2.556-14.229z" fill="#A8DFFA"/>
    <path d="M642.787 109.674c1.761-3.777 20.087-17.831 20.087-17.831s3.789 20.466 2.21 26.176c-.775 2.801-4.093 8.114-8.901 9.398-4.936 1.318-8.327-1.008-10.84-3.513-4.936-4.919-4.318-10.453-2.556-14.23zM409.935 205.554c1.762-3.777 20.087-17.831 20.087-17.831s3.79 20.466 2.211 26.176c-.775 2.801-4.093 8.115-8.902 9.398-4.935 1.318-8.326-1.008-10.84-3.513-4.935-4.919-4.317-10.453-2.556-14.23zM514.377 283.457c1.761-3.777 20.087-17.831 20.087-17.831s3.789 20.466 2.21 26.176c-.775 2.801-4.093 8.115-8.901 9.398-4.936 1.318-8.327-1.008-10.841-3.513-4.935-4.919-4.317-10.453-2.555-14.23zM456.163 439.263c1.761-3.777 20.087-17.831 20.087-17.831s3.789 20.466 2.21 26.175c-.775 2.802-4.093 8.115-8.901 9.399-4.936 1.318-8.327-1.008-10.84-3.514-4.936-4.918-4.318-10.452-2.556-14.229zM606.833 421.285c1.761-3.777 20.087-17.831 20.087-17.831s3.789 20.466 2.21 26.176c-.775 2.801-4.093 8.115-8.901 9.398-4.936 1.318-8.327-1.008-10.841-3.513-4.935-4.919-4.317-10.453-2.555-14.23zM594.846 523.158c1.762-3.777 20.087-17.831 20.087-17.831s3.79 20.466 2.211 26.176c-.775 2.801-4.093 8.115-8.902 9.398-4.935 1.318-8.326-1.008-10.84-3.513-4.935-4.919-4.317-10.453-2.556-14.23zM690.727-16.17C692.489-19.945 710.814-34 710.814-34s3.79 20.466 2.21 26.175c-.774 2.802-4.092 8.115-8.901 9.4-4.935 1.317-8.326-1.01-10.84-3.514-4.935-4.92-4.317-10.453-2.556-14.23zM837.972 19.786c1.762-3.777 20.087-17.83 20.087-17.83s3.79 20.465 2.211 26.175c-.775 2.801-4.093 8.115-8.902 9.398-4.935 1.318-8.326-1.008-10.84-3.513-4.935-4.92-4.317-10.453-2.556-14.23zM861.941 85.704c1.761-3.777 20.087-17.831 20.087-17.831s3.79 20.466 2.21 26.175c-.775 2.802-4.093 8.115-8.901 9.399-4.935 1.318-8.326-1.008-10.84-3.514-4.936-4.918-4.317-10.452-2.556-14.23zM959.534 1.809c1.761-3.777 20.087-17.831 20.087-17.831s3.79 20.466 2.21 26.175c-.775 2.802-4.093 8.115-8.901 9.399-4.936 1.317-8.327-1.008-10.84-3.514-4.936-4.919-4.318-10.452-2.556-14.23zM772.911 133.644c1.761-3.777 20.087-17.831 20.087-17.831s3.789 20.466 2.21 26.176c-.775 2.801-4.093 8.115-8.901 9.398-4.936 1.318-8.327-1.008-10.84-3.513-4.936-4.919-4.318-10.453-2.556-14.23zM831.123 187.577c1.761-3.777 20.087-17.831 20.087-17.831s3.789 20.466 2.21 26.175c-.775 2.802-4.093 8.115-8.901 9.399-4.936 1.317-8.327-1.008-10.84-3.514-4.936-4.918-4.318-10.452-2.556-14.229zM1063.98 103.681c1.76-3.777 20.08-17.83 20.08-17.83s3.79 20.466 2.21 26.175c-.77 2.801-4.09 8.115-8.9 9.399-4.93 1.317-8.33-1.009-10.84-3.514-4.93-4.919-4.32-10.453-2.55-14.23zM927.86 408.444c1.761-3.777 20.087-17.831 20.087-17.831s3.79 20.466 2.21 26.176c-.775 2.801-4.093 8.115-8.901 9.398-4.935 1.318-8.326-1.008-10.84-3.513-4.936-4.919-4.317-10.453-2.556-14.23zM983.505 223.532c1.762-3.777 20.085-17.831 20.085-17.831s3.79 20.466 2.21 26.175c-.77 2.802-4.09 8.115-8.899 9.399-4.935 1.318-8.326-1.008-10.84-3.513-4.935-4.919-4.317-10.453-2.556-14.23zM666.756 283.457c1.762-3.777 20.088-17.831 20.088-17.831s3.789 20.466 2.21 26.176c-.775 2.801-4.093 8.115-8.902 9.398-4.935 1.318-8.326-1.008-10.84-3.513-4.935-4.919-4.317-10.453-2.556-14.23zM772.911 439.263c1.761-3.777 20.087-17.831 20.087-17.831s3.789 20.466 2.21 26.175c-.775 2.802-4.093 8.115-8.901 9.399-4.936 1.318-8.327-1.008-10.84-3.514-4.936-4.918-4.318-10.452-2.556-14.229zM814.003 319.412c1.761-3.777 20.087-17.831 20.087-17.831s3.789 20.466 2.21 26.176c-.775 2.801-4.093 8.115-8.902 9.398-4.935 1.318-8.326-1.008-10.84-3.513-4.935-4.919-4.317-10.453-2.555-14.23zM1032.3 313.42c1.76-3.777 20.09-17.831 20.09-17.831s3.79 20.466 2.21 26.175c-.78 2.802-4.09 8.115-8.9 9.399-4.94 1.318-8.33-1.008-10.84-3.514-4.94-4.918-4.32-10.452-2.56-14.229zM411.647 588.22c1.761-3.777 20.087-17.831 20.087-17.831s3.79 20.466 2.21 26.175c-.775 2.802-4.093 8.115-8.901 9.399-4.935 1.318-8.326-1.008-10.84-3.514-4.935-4.918-4.317-10.452-2.556-14.229zM748.94 588.22c1.761-3.777 20.087-17.831 20.087-17.831s3.79 20.466 2.21 26.175c-.775 2.802-4.093 8.115-8.901 9.399-4.935 1.318-8.326-1.008-10.84-3.514-4.935-4.918-4.317-10.452-2.556-14.229zM1063.98 444.399c1.76-3.777 20.08-17.831 20.08-17.831s3.79 20.466 2.21 26.176c-.77 2.801-4.09 8.115-8.9 9.398-4.93 1.318-8.33-1.008-10.84-3.513-4.93-4.919-4.32-10.453-2.55-14.23zM570.877 679.82c1.761-3.777 20.087-17.831 20.087-17.831s3.789 20.466 2.21 26.175c-.775 2.802-4.093 8.115-8.901 9.399-4.936 1.317-8.327-1.008-10.841-3.514-4.935-4.919-4.317-10.452-2.555-14.229zM903.89 643.865c1.762-3.777 20.087-17.831 20.087-17.831s3.79 20.466 2.211 26.175c-.775 2.802-4.093 8.115-8.902 9.399-4.935 1.317-8.326-1.008-10.84-3.514-4.935-4.919-4.317-10.452-2.556-14.229z" fill="#A8DFFA"/>
  </g>
  <defs>
    <clipPath id="clip0">
      <path fill="#fff" d="M0 0h1700v1073H0z"/>
    </clipPath>
  </defs>
</svg>